<?xml version="1.0" encoding="utf-8"?>
<!-- Generator: Adobe Illustrator 25.2.1, SVG Export Plug-In . SVG Version: 6.00 Build 0)  -->
<svg version="1.1" xmlns="http://www.w3.org/2000/svg" xmlns:xlink="http://www.w3.org/1999/xlink" x="0px" y="0px"
	 viewBox="0 0 89.3 33.5" style="enable-background:new 0 0 89.3 33.5;" xml:space="preserve">
<style type="text/css">
	.st0{fill:none;stroke:#A21544;stroke-width:0.75;stroke-miterlimit:10;}
	.st1{fill:none;stroke:#A21544;stroke-miterlimit:10;}
</style>
<g id="word">
	<g>
		<path id="scented-s" d="M6.5,14.8c-0.2,0.1-0.3,0-0.3-0.1c0-0.2-0.1-0.2-0.3-0.2c-0.1,0-0.3,0.2-0.5,0.3c-0.1,0.1-0.3,0.3-0.4,0.4
			c-0.1,0.1-0.2,0.3-0.2,0.4c-0.1,0.1-0.1,0.3-0.1,0.4c0,0.1,0.1,0.3,0.1,0.4c0.1,0.2,0.3,0.3,0.5,0.4L5.5,17L6,16.8
			c0.3-0.1,0.6-0.2,0.8-0.3c0.3-0.1,0.6-0.2,0.8-0.3c0,0,0.1,0,0.1,0c0.1,0,0.1,0,0.2,0c0.1,0,0.1,0,0.1,0c0,0,0,0.1,0,0.1
			c0,0.1,0,0.2-0.1,0.2C8,16.6,8,16.6,7.9,16.6c-0.2,0.1-0.4,0.1-0.7,0.2C7,16.9,6.8,17,6.6,17.1c-0.1,0.1-0.3,0.1-0.4,0.2
			c-0.1,0-0.2,0.1-0.3,0.2C6,17.7,6,18.1,5.8,18.6c-0.2,0.4-0.4,0.6-0.7,0.8s-0.5,0.3-0.7,0.3s-0.4-0.1-0.6-0.2
			c-0.1-0.1-0.2-0.3-0.2-0.5c0-0.2,0.1-0.5,0.3-0.7c0.2-0.3,0.6-0.6,1.1-0.9l-0.2-0.1C4.7,17.1,4.6,17,4.5,17
			c-0.1-0.1-0.2-0.2-0.2-0.3c-0.1-0.2-0.1-0.4-0.1-0.6c0-0.2,0.1-0.4,0.2-0.7c0.1-0.2,0.3-0.4,0.4-0.6c0.2-0.2,0.4-0.4,0.6-0.5
			C5.7,14,6,13.9,6.2,13.9c0.3,0,0.5,0.2,0.6,0.5c0,0.1,0,0.2-0.1,0.3v0L6.5,14.8z M5.2,18.6c0.1-0.2,0.2-0.4,0.2-0.5
			c0-0.1,0-0.3-0.1-0.4c-0.4,0.2-0.7,0.5-0.9,0.6c-0.2,0.2-0.2,0.3-0.2,0.5c0,0.1,0,0.2,0.1,0.2c0.1,0,0.2,0.1,0.3,0.1
			c0.1,0,0.2-0.1,0.3-0.1C5,18.9,5.1,18.8,5.2,18.6z M5.3,17.7C5.3,17.7,5.3,17.7,5.3,17.7C5.3,17.7,5.2,17.7,5.3,17.7L5.3,17.7z"/>
		<path id="scented-c" d="M10.1,15.1C10.1,15,10.1,15,10.1,15.1c0.1-0.1,0.1-0.2,0.1-0.2c-0.1,0-0.2,0.1-0.4,0.1
			c-0.2,0.1-0.3,0.2-0.5,0.3c-0.2,0.1-0.3,0.2-0.4,0.3c-0.1,0.1-0.2,0.2-0.3,0.3c-0.2,0.2-0.5,0.5-0.7,0.8c-0.2,0.3-0.3,0.6-0.3,0.8
			c0,0.1,0,0.2,0.1,0.3C7.8,18,7.8,18.1,8,18.2c0.1,0.1,0.3,0.1,0.5,0.1c0.2,0,0.5-0.1,0.9-0.2c0.3-0.1,0.7-0.3,1.1-0.5
			c0.4-0.2,0.7-0.4,1.1-0.6c0.4-0.2,0.7-0.4,1-0.6l0.4-0.2l0.2-0.1c0.1,0,0.2,0,0.2,0c0.1,0,0.1,0.1,0.1,0.1c0,0.1,0,0.1,0,0.2
			c0,0.1-0.1,0.1-0.2,0.2c-0.1,0.1-0.3,0.1-0.4,0.2c-0.1,0.1-0.3,0.2-0.4,0.2c-0.3,0.2-0.6,0.4-1,0.6c-0.3,0.2-0.7,0.4-1,0.5
			c-0.4,0.2-0.7,0.3-1,0.4c-0.3,0.1-0.6,0.2-0.9,0.2c-0.4,0-0.8-0.1-1-0.3C7.2,18.3,7,18.1,7,17.7c0-0.3,0.1-0.7,0.3-1.1
			c0.1-0.2,0.3-0.4,0.5-0.7c0.2-0.2,0.5-0.5,0.8-0.7c0.3-0.2,0.6-0.4,0.8-0.6c0.3-0.2,0.5-0.3,0.8-0.3c0.1,0,0.3,0,0.3,0.1
			c0.1,0,0.1,0.1,0.1,0.2c0,0.1,0,0.2,0,0.3c0,0.1-0.1,0.2-0.2,0.3c0,0.1-0.1,0.1-0.2,0.1c-0.1,0-0.2,0-0.2,0
			C10,15.4,9.9,15.3,10.1,15.1z"/>
		<path id="scented-e" d="M14.7,16.1c-0.2,0.1-0.4,0.1-0.7,0.1c-0.2,0-0.4,0-0.5,0c-0.1,0.1-0.2,0.2-0.3,0.4
			c-0.1,0.1-0.2,0.2-0.2,0.4c-0.1,0.3-0.2,0.5-0.2,0.7c0,0.2,0.1,0.3,0.2,0.5c0.1,0.1,0.4,0.1,0.7,0.1c0.1,0,0.3-0.1,0.5-0.2
			c0.2-0.1,0.4-0.2,0.6-0.3s0.5-0.2,0.7-0.3c0.2-0.1,0.5-0.2,0.7-0.4c0.4-0.2,0.8-0.4,1.1-0.6c0.4-0.2,0.7-0.3,0.9-0.4
			c0.2,0,0.3,0,0.3,0.2c0,0.1-0.1,0.2-0.2,0.3c-0.1,0.1-0.2,0.1-0.3,0.2c0,0,0,0,0,0c0,0,0,0,0,0c-0.2,0.1-0.4,0.2-0.7,0.3
			c-0.2,0.1-0.5,0.2-0.7,0.4c-0.5,0.3-1,0.6-1.5,0.8c-0.5,0.3-1,0.4-1.5,0.5c-0.5,0.1-0.8,0-1-0.2c-0.2-0.2-0.3-0.4-0.3-0.8
			c0-0.3,0.1-0.7,0.3-1c0.1-0.2,0.2-0.4,0.4-0.6c0.2-0.2,0.4-0.4,0.6-0.6c0.2-0.2,0.4-0.4,0.7-0.6c0.2-0.2,0.5-0.3,0.7-0.4
			c0.1,0,0.3-0.1,0.4-0.1c0.1,0,0.3,0,0.4,0.1c0.1,0,0.2,0.1,0.3,0.2c0.1,0.1,0.1,0.2,0.1,0.3c-0.1,0.2-0.2,0.5-0.5,0.6
			C15.3,15.9,15,16,14.7,16.1z M14.1,15.6h0.1H14.1L14.1,15.6z M15,15.1c-0.3,0.1-0.5,0.3-0.8,0.5c0.2,0,0.5-0.1,0.8-0.1
			c0.3-0.1,0.4-0.2,0.5-0.3c0-0.1-0.1-0.1-0.2-0.1C15.2,15.1,15.1,15.1,15,15.1z"/>
		<path id="scented-n" d="M27.4,16.2c0,0.1,0,0.1,0,0.2c0,0.1-0.1,0.1-0.1,0.2c-0.2,0.2-0.5,0.4-0.7,0.5c-0.2,0.2-0.5,0.3-0.7,0.5
			c-0.2,0.1-0.5,0.2-0.7,0.3C24.9,18,24.7,18,24.5,18c-0.2,0-0.5-0.1-0.6-0.3c-0.2-0.2-0.3-0.5-0.3-0.9v-0.4c0-0.2,0-0.3,0-0.5
			c0-0.2,0-0.4-0.1-0.6c0-0.2-0.1-0.3-0.1-0.4c-0.1-0.1-0.2-0.2-0.3-0.2c-0.2,0-0.5,0.1-0.8,0.2c-0.3,0.2-0.6,0.4-1,0.6
			c-0.3,0.3-0.6,0.5-1,0.8c-0.3,0.3-0.6,0.6-0.8,0.9c0,0,0,0.1-0.1,0.2c-0.1,0.1-0.2,0.2-0.2,0.3c-0.1,0.1-0.2,0.3-0.3,0.4
			c-0.1,0.2-0.2,0.3-0.3,0.4c-0.1,0.1-0.2,0.2-0.3,0.3c-0.1,0.1-0.2,0.1-0.3,0.1c-0.2,0-0.3-0.1-0.3-0.3c-0.1-0.1-0.1-0.3-0.1-0.5
			c0-0.2,0-0.5,0.1-0.8c0.1-0.3,0.2-0.6,0.3-0.9c0.1-0.3,0.3-0.6,0.4-0.9c0.1-0.3,0.3-0.6,0.4-0.9c0.1-0.1,0.1-0.3,0.2-0.4
			c0.1-0.1,0.1-0.2,0.1-0.3c0-0.1,0.1-0.1,0.2-0.2c0.1-0.1,0.1-0.1,0.2-0.1c0.1,0,0.2,0,0.2,0.1c0,0.1,0,0.1,0,0.2
			c0,0.1-0.1,0.1-0.1,0.2c0,0.1-0.1,0.2-0.2,0.3c-0.1,0.3-0.3,0.6-0.5,1c-0.2,0.4-0.3,0.8-0.5,1.1c-0.1,0.4-0.3,0.7-0.3,1
			c-0.1,0.3,0,0.5,0.1,0.6c0,0,0.1-0.1,0.1-0.2c0.1-0.1,0.1-0.1,0.1-0.1c0.1-0.2,0.3-0.4,0.5-0.7c0.2-0.2,0.4-0.5,0.6-0.7
			c0.1-0.2,0.3-0.3,0.5-0.5c0.2-0.2,0.4-0.4,0.7-0.6c0.2-0.2,0.5-0.4,0.7-0.6c0.3-0.2,0.5-0.4,0.8-0.5c0.2-0.1,0.5-0.2,0.7-0.3
			c0.2-0.1,0.4-0.1,0.6,0c0.2,0,0.3,0.1,0.4,0.2s0.2,0.3,0.2,0.4c0,0.2,0.1,0.3,0.1,0.5c0,0.2,0,0.4,0,0.6c0,0.2,0,0.4,0,0.5
			c0,0.2,0,0.3,0.1,0.5c0,0.1,0.1,0.2,0.2,0.3s0.2,0.1,0.3,0.1c0.1,0,0.1,0,0.2,0c0.1,0,0.2-0.1,0.3-0.1c0.3-0.1,0.5-0.3,0.8-0.5
			c0.3-0.2,0.6-0.4,0.8-0.6l0.1-0.1c0.1,0,0.1-0.1,0.2-0.1C27.3,16.1,27.3,16.1,27.4,16.2z"/>
		<path id="scented-t" d="M35.1,16.2c0,0.1,0,0.1,0,0.2c0,0.1-0.1,0.1-0.1,0.2c-0.7,0.6-1.5,1.1-2.3,1.7c-0.8,0.6-1.6,1.1-2.3,1.6
			c0,0,0,0-0.1,0.1c0,0-0.1,0-0.1,0.1c-0.2,0.2-0.5,0.3-0.9,0.6c-0.3,0.2-0.7,0.4-1.1,0.6c-0.4,0.2-0.7,0.3-1,0.5
			c-0.3,0.1-0.6,0.2-0.8,0.1c-0.2-0.1-0.3-0.2-0.4-0.4c-0.1-0.2-0.1-0.4-0.1-0.7c0-0.4,0.1-0.8,0.2-1.4c0.1-0.5,0.3-1.1,0.5-1.8
			c0.2-0.6,0.5-1.3,0.7-2c0.3-0.7,0.6-1.4,0.9-2.1c0.3-0.7,0.6-1.4,0.9-2.1c0.3-0.7,0.6-1.3,0.9-1.9c-0.5,0-1.1,0.1-1.6,0.1
			c-0.5,0-1,0.1-1.4,0.2c-0.1,0-0.1,0-0.2-0.1c-0.1,0-0.1-0.1-0.1-0.2c0-0.1,0-0.1,0.1-0.2C26.9,9.1,27,9.1,27,9.1
			c0.4-0.1,1-0.2,1.5-0.2c0.6,0,1.2-0.1,1.8-0.1c0.3-0.6,0.6-1.1,0.8-1.6c0.2-0.5,0.4-0.8,0.6-1l0.1-0.3c0.1-0.2,0.3-0.5,0.4-0.7
			c0.2-0.3,0.4-0.5,0.6-0.7c0.2-0.1,0.3-0.1,0.3,0.1c0,0.1,0,0.1,0,0.2c0,0.1-0.1,0.1-0.1,0.2c-0.1,0.2-0.3,0.4-0.5,0.7
			c-0.2,0.3-0.4,0.6-0.6,0.9c-0.2,0.3-0.4,0.7-0.6,1.1c-0.2,0.4-0.4,0.8-0.6,1.2H31c0.3,0,0.5,0,0.8,0c0.3,0,0.5,0,0.7,0
			c0.2,0,0.4,0,0.7,0s0.5,0,0.7,0c0.1,0,0.2,0,0.2,0.1c0,0.1,0,0.1,0,0.2c0,0.1-0.1,0.1-0.1,0.2c-0.1,0-0.2,0.1-0.2,0.1
			c-0.3,0-0.5,0-0.8,0c-0.3,0-0.5,0-0.8,0c-0.2,0-0.4,0-0.6,0c-0.2,0-0.5,0-0.7,0h-0.2c-0.2,0.4-0.4,0.9-0.6,1.3
			c-0.2,0.4-0.4,0.8-0.6,1.2c-0.2,0.4-0.3,0.8-0.5,1.1c-0.1,0.3-0.3,0.6-0.4,0.9c-0.1,0.2-0.2,0.4-0.3,0.7c-0.1,0.3-0.3,0.7-0.4,1.1
			c-0.2,0.4-0.3,0.8-0.5,1.3c-0.2,0.4-0.3,0.9-0.4,1.3c-0.1,0.4-0.2,0.8-0.3,1.2c-0.1,0.4-0.1,0.7-0.1,1c0,0.4,0.1,0.6,0.3,0.7
			c0.2,0,0.4-0.1,0.8-0.3c0.4-0.2,0.9-0.4,1.4-0.8c0.5-0.3,1.1-0.7,1.6-1.1c0.6-0.4,1.1-0.8,1.7-1.2c0.5-0.4,1-0.7,1.4-1
			c0.4-0.3,0.7-0.5,0.9-0.7c0.1,0,0.1-0.1,0.2-0.1C35,16.1,35,16.1,35.1,16.2z"/>
		<path id="scented-e_1_" d="M36.4,16.1c-0.2,0.1-0.4,0.1-0.7,0.1c-0.2,0-0.4,0-0.5,0c-0.1,0.1-0.2,0.2-0.3,0.4
			c-0.1,0.1-0.2,0.2-0.2,0.4c-0.1,0.3-0.2,0.5-0.2,0.7c0,0.2,0.1,0.3,0.2,0.5c0.1,0.1,0.4,0.1,0.7,0.1c0.1,0,0.3-0.1,0.5-0.2
			c0.2-0.1,0.4-0.2,0.6-0.3c0.2-0.1,0.5-0.2,0.7-0.3c0.2-0.1,0.5-0.2,0.7-0.4c0.4-0.2,0.8-0.4,1.1-0.6c0.4-0.2,0.7-0.3,0.9-0.4
			c0.2,0,0.3,0,0.3,0.2c0,0.1-0.1,0.2-0.2,0.3c-0.1,0.1-0.2,0.1-0.3,0.2c0,0,0,0,0,0c0,0,0,0,0,0c-0.2,0.1-0.4,0.2-0.7,0.3
			c-0.2,0.1-0.5,0.2-0.7,0.4c-0.5,0.3-1,0.6-1.5,0.8c-0.5,0.3-1,0.4-1.5,0.5c-0.5,0.1-0.8,0-1-0.2c-0.2-0.2-0.3-0.4-0.3-0.8
			c0-0.3,0.1-0.7,0.3-1c0.1-0.2,0.2-0.4,0.4-0.6c0.2-0.2,0.4-0.4,0.6-0.6c0.2-0.2,0.4-0.4,0.7-0.6c0.2-0.2,0.5-0.3,0.7-0.4
			c0.1,0,0.3-0.1,0.4-0.1c0.1,0,0.3,0,0.4,0.1c0.1,0,0.2,0.1,0.3,0.2c0.1,0.1,0.1,0.2,0.1,0.3c-0.1,0.2-0.2,0.5-0.5,0.6
			C37,15.9,36.7,16,36.4,16.1z M35.7,15.6h0.1H35.7L35.7,15.6z M36.6,15.1c-0.3,0.1-0.5,0.3-0.8,0.5c0.2,0,0.5-0.1,0.8-0.1
			c0.3-0.1,0.4-0.2,0.5-0.3c0-0.1-0.1-0.1-0.2-0.1C36.8,15.1,36.7,15.1,36.6,15.1z"/>
		<path id="scented-d" d="M44,15.3c0,0.4,0,0.7,0.1,1.1c0.1,0.4,0.2,0.6,0.3,0.8c0.2,0.2,0.4,0.3,0.7,0.3c0.2,0,0.4,0,0.6-0.1
			c0.2-0.1,0.4-0.2,0.6-0.3c0.2-0.1,0.4-0.3,0.6-0.4c0.2-0.1,0.4-0.3,0.6-0.4v0l0.2-0.2c0.1,0,0.2,0,0.3,0.1c0,0.1,0,0.1,0,0.2
			s-0.1,0.1-0.1,0.2c-0.4,0.3-0.8,0.6-1.3,0.9c-0.5,0.3-0.9,0.5-1.4,0.6c-0.3,0-0.6,0-0.8-0.1c-0.2-0.1-0.4-0.2-0.5-0.4
			c-0.1-0.2-0.2-0.4-0.3-0.7c-0.1-0.3-0.1-0.6-0.1-0.9c-0.8,0.9-1.6,1.7-2.1,2.1c-0.3,0.2-0.5,0.4-0.8,0.5c-0.3,0.2-0.5,0.2-0.8,0.2
			c-0.3,0-0.5-0.1-0.6-0.4c-0.1-0.2-0.1-0.4-0.1-0.6c0-0.2,0.1-0.5,0.3-0.7c0.1-0.2,0.3-0.5,0.5-0.7c0.2-0.2,0.4-0.5,0.7-0.7
			c0.2-0.2,0.5-0.4,0.7-0.6c0.2-0.2,0.4-0.3,0.6-0.5c0.3-0.2,0.7-0.4,1-0.5c0.3-0.1,0.6-0.1,0.8,0c0.1-0.7,0.2-1.3,0.4-2
			c0.2-0.6,0.3-1.1,0.4-1.5c0.1-0.4,0.3-0.8,0.5-1.3c0.2-0.5,0.4-1.1,0.7-1.7C45.7,7,46,6.4,46.3,5.8c0.3-0.6,0.6-1.2,1-1.7
			c0.4-0.5,0.7-1,1.1-1.4c0.4-0.4,0.8-0.7,1.2-0.8c0.2-0.1,0.4-0.1,0.6-0.1c0.3,0,0.6,0.1,0.7,0.3c0.2,0.2,0.2,0.5,0.2,0.9
			c0,0.4-0.2,0.9-0.4,1.4c-0.2,0.6-0.5,1.2-0.8,1.8c-0.3,0.7-0.7,1.4-1.2,2.1c-0.4,0.7-0.9,1.5-1.4,2.2c-0.5,0.7-1,1.5-1.5,2.2
			s-1,1.4-1.6,2L44,15.3z M43.2,14.7c-0.2-0.1-0.4-0.2-0.7-0.1c-0.3,0.1-0.6,0.3-0.9,0.5c-0.3,0.2-0.6,0.5-0.9,0.8
			c-0.3,0.3-0.5,0.5-0.6,0.7c-0.1,0.2-0.3,0.4-0.4,0.6c-0.1,0.2-0.2,0.5-0.2,0.6c0,0.2,0.1,0.3,0.3,0.4c0.2,0,0.4,0,0.7-0.2
			c0.3-0.2,0.6-0.4,0.9-0.7c0.3-0.3,0.7-0.6,1-1c0.4-0.4,0.7-0.7,1-1.1c0,0,0-0.1,0-0.2c0-0.1,0-0.1,0-0.2
			C43.3,14.8,43.3,14.8,43.2,14.7L43.2,14.7z M44.4,13.9c0.3-0.4,0.7-0.9,1.1-1.5c0.4-0.6,0.8-1.2,1.3-1.9c0.4-0.7,0.9-1.3,1.3-2
			c0.4-0.7,0.8-1.4,1.2-2c0.3-0.7,0.6-1.3,0.8-1.8c0.2-0.6,0.3-1.1,0.4-1.5c0-0.3,0-0.5-0.2-0.6c-0.1-0.2-0.4-0.2-0.7-0.1
			c-0.3,0.1-0.6,0.3-0.9,0.6c-0.3,0.3-0.6,0.6-0.8,1c-0.3,0.4-0.5,0.8-0.8,1.2c-0.3,0.4-0.5,0.9-0.7,1.3C46.2,7.2,46,7.6,45.9,8
			c-0.2,0.4-0.3,0.7-0.4,1c-0.1,0.3-0.3,0.7-0.4,1.2c-0.1,0.4-0.3,0.9-0.4,1.4c-0.1,0.5-0.2,1-0.4,1.5c-0.1,0.5-0.2,1-0.2,1.4
			L44.4,13.9z"/>
		<path id="for-f" d="M52.5,15c0.2-0.2,0.5-0.4,0.8-0.8c0.3-0.3,0.6-0.7,0.9-1.1c0.3-0.4,0.7-0.9,1-1.3c0.4-0.5,0.7-1,1-1.5
			c0.3-0.7,0.6-1.3,1-2c0.3-0.7,0.7-1.3,1-2c0.1-0.1,0.2-0.3,0.3-0.5c0.1-0.2,0.2-0.5,0.4-0.8c0.1-0.3,0.3-0.6,0.5-0.8
			c0.2-0.3,0.3-0.6,0.5-0.8c0.2-0.2,0.3-0.4,0.5-0.6c0.1-0.2,0.3-0.3,0.4-0.3c0.2-0.1,0.3,0,0.4,0.1c0,0.1,0,0.3,0,0.5
			c-0.1,0.2-0.1,0.4-0.2,0.6c-0.1,0.2-0.2,0.3-0.2,0.4c-0.2,0.3-0.4,0.7-0.6,1.2c-0.3,0.5-0.6,1-0.9,1.5c-0.3,0.5-0.7,1.1-1,1.7
			c-0.4,0.6-0.8,1.2-1.1,1.7c-0.2,0.4-0.3,0.7-0.5,1c-0.1,0.3-0.2,0.5-0.3,0.7c-0.1,0.2-0.2,0.5-0.3,0.7c-0.1,0.2-0.2,0.5-0.3,0.7
			l-0.8,1.9c0,0,0,0.1,0,0.1c0,0,0,0.1-0.1,0.1c0.4-0.3,0.9-0.7,1.3-1c0.4-0.3,0.8-0.6,1.2-0.9c0.4-0.3,0.7-0.5,1-0.8
			c0.3-0.2,0.5-0.4,0.7-0.6c0.1-0.1,0.3-0.3,0.5-0.5c0.2-0.2,0.4-0.4,0.6-0.6c0.2-0.2,0.4-0.4,0.6-0.7c0.2-0.2,0.3-0.4,0.5-0.6
			L61,9.8v0c0-0.2,0.2-0.3,0.3-0.3c0.1,0,0.2,0,0.2,0.1c0,0.1,0.1,0.1,0,0.2L61.4,10c-0.1,0.2-0.2,0.4-0.4,0.7
			c-0.2,0.2-0.4,0.5-0.7,0.7c-0.2,0.2-0.5,0.5-0.7,0.7c-0.2,0.2-0.5,0.4-0.6,0.6v0c-0.2,0.2-0.5,0.5-0.9,0.7
			c-0.4,0.3-0.7,0.6-1.2,0.9c-0.4,0.3-0.9,0.7-1.3,1c-0.5,0.4-0.9,0.7-1.4,1c-0.1,0.3-0.3,0.6-0.4,1c-0.1,0.3-0.3,0.7-0.4,1
			c0.4,0.5,0.8,1.1,1,1.8c0.2,0.7,0.3,1.5,0.3,2.4c0,0.7-0.1,1.5-0.3,2.2c-0.2,0.7-0.5,1.4-0.9,1.9c-0.1,0.2-0.3,0.4-0.6,0.7
			c-0.2,0.2-0.5,0.5-0.8,0.6c-0.3,0.2-0.5,0.3-0.8,0.4c-0.3,0.1-0.5,0.1-0.7-0.1c-0.1-0.1-0.2-0.2-0.3-0.4c-0.1-0.2-0.1-0.4-0.1-0.7
			c0-0.5,0.1-1.2,0.3-1.9c0.2-0.7,0.4-1.5,0.6-2.3c0.2-0.8,0.5-1.5,0.7-2.1c0.2-0.6,0.4-1.1,0.5-1.5l0.3-0.8
			c-0.1-0.1-0.1-0.1-0.2-0.2c-0.1-0.1-0.2-0.1-0.3-0.2c-0.1-0.1-0.2-0.1-0.3-0.2c-0.1,0-0.2-0.1-0.3-0.1c-0.3,0.2-0.6,0.3-0.8,0.4
			c-0.3,0.1-0.5,0.2-0.6,0.3c-0.3,0.1-0.5,0.1-0.5-0.1c0-0.1,0.1-0.3,0.4-0.5c0.5-0.4,1-0.6,1.6-0.7c0.3-0.2,0.6-0.4,1-0.6
			c0.4-0.2,0.7-0.5,1.1-0.8l0.9-2.3l0.5-1.3c-0.3,0.4-0.6,0.8-0.9,1.1c-0.3,0.4-0.6,0.7-0.9,1c-0.1,0.1-0.3,0.3-0.4,0.4
			c-0.1,0.1-0.3,0.2-0.3,0.3c-0.2,0.1-0.3,0.1-0.4,0c0-0.1,0-0.1,0-0.2C52.3,15.1,52.4,15,52.5,15z M54.2,22.7c0-0.7-0.1-1.4-0.3-2
			c-0.2-0.7-0.4-1.2-0.8-1.7c-0.3,0.9-0.6,1.7-0.9,2.6c-0.3,0.8-0.5,1.6-0.7,2.4c0,0.1-0.1,0.3-0.1,0.5c-0.1,0.2-0.1,0.5-0.2,0.8
			c-0.1,0.3-0.1,0.6-0.2,0.9c0,0.3-0.1,0.6-0.1,0.8c0,0.3,0,0.5,0.1,0.6c0.1,0.1,0.2,0.2,0.5,0.1c0.2-0.1,0.4-0.2,0.6-0.4
			c0.2-0.2,0.4-0.3,0.6-0.5c0.2-0.2,0.3-0.4,0.5-0.6c0.1-0.2,0.3-0.4,0.4-0.6c0.2-0.4,0.4-0.9,0.5-1.4
			C54.1,23.7,54.2,23.2,54.2,22.7z M53.4,16.9c-0.2,0.1-0.3,0.2-0.5,0.3c-0.2,0.1-0.3,0.2-0.5,0.3l0.1,0.1c0,0,0,0,0,0c0,0,0,0,0,0
			c0.2,0.1,0.3,0.2,0.5,0.3L53.4,16.9z M53.2,19L53.2,19L53.2,19L53.2,19z M58.1,7.5l0.4-0.6L58.1,7.5L58.1,7.5z M60.3,3.5
			c-0.2,0.4-0.5,0.8-0.8,1.4c-0.3,0.6-0.6,1.2-1,1.9c0.4-0.7,0.8-1.3,1.1-1.9C59.9,4.4,60.1,3.9,60.3,3.5z M60.3,3.5
			C60.3,3.5,60.3,3.5,60.3,3.5L60.3,3.5L60.3,3.5z"/>
		<path id="for-o" d="M58.8,14.5c0.1,0,0.1,0.1,0.1,0.2c0,0.1,0,0.1-0.1,0.2c0,0,0.1-0.1,0.2-0.1c0.2-0.1,0.4-0.2,0.6-0.3
			c0.2-0.1,0.4-0.1,0.6-0.1c0.2,0,0.4,0.1,0.5,0.2v0c0.1,0.1,0.2,0.3,0.2,0.6c0,0.2,0,0.4-0.1,0.7c-0.1,0.2-0.2,0.5-0.3,0.7
			c-0.1,0.2-0.2,0.5-0.4,0.7c-0.1,0.2-0.3,0.4-0.4,0.6c-0.3,0.3-0.6,0.6-0.9,0.8c-0.3,0.2-0.6,0.3-0.9,0.3c-0.2,0-0.4-0.1-0.6-0.2
			c-0.1-0.1-0.2-0.3-0.3-0.6c0-0.2,0-0.5,0-0.8c0.1-0.3,0.1-0.6,0.2-0.9c0.1-0.3,0.3-0.6,0.4-0.9c0.2-0.3,0.4-0.6,0.5-0.8
			c0.1-0.1,0.1-0.1,0.2-0.1C58.7,14.5,58.8,14.5,58.8,14.5z M57.8,17c0,0.1,0,0.2-0.1,0.3c0,0.1,0,0.2,0,0.3c0,0.2,0,0.3,0.1,0.5
			c0.1,0.2,0.2,0.3,0.4,0.3c0.1,0,0.3,0,0.5-0.1c0.2-0.1,0.3-0.2,0.5-0.4c0.2-0.2,0.3-0.4,0.5-0.6c0.2-0.2,0.3-0.5,0.4-0.8
			c0.1-0.3,0.2-0.5,0.2-0.8c0.1-0.2,0.1-0.5,0-0.6c0-0.1-0.1-0.1-0.2-0.1c-0.1,0-0.2,0-0.3,0c-0.1,0-0.2,0.1-0.3,0.1
			c-0.1,0.1-0.2,0.1-0.3,0.2c-0.3,0.2-0.6,0.5-0.8,0.9C58.2,16.4,58,16.7,57.8,17L57.8,17z"/>
		<path id="for-r" d="M63.2,14.3c-0.1,0.4-0.3,0.7-0.4,1c-0.1,0.3-0.2,0.7-0.4,1.1c0.4-0.5,0.8-1.1,1.3-1.6c0.5-0.5,1-0.9,1.5-1.3
			c0.2-0.2,0.4-0.3,0.6-0.4c0.2-0.1,0.4-0.1,0.5-0.1c0.2,0,0.3,0.1,0.4,0.2c0.1,0.1,0.1,0.3,0.1,0.6c0,0,0,0.1,0,0.1
			c0,0,0,0.1,0,0.1c0,0.1-0.1,0.1-0.1,0.2c-0.1,0.1-0.1,0.1-0.2,0.1c-0.1,0-0.1,0-0.2-0.1c0,0,0-0.1,0-0.1c0,0,0-0.1,0-0.1
			c0-0.3,0-0.4-0.2-0.4c-0.2,0-0.4,0.1-0.7,0.3c-0.3,0.2-0.7,0.5-1,0.9c-0.3,0.3-0.7,0.7-1,1.1s-0.6,0.8-0.9,1.1
			c-0.3,0.4-0.5,0.8-0.7,1.1c0,0.1-0.1,0.1-0.1,0.2c0,0.1-0.1,0.1-0.1,0.2c-0.1,0.2-0.2,0.3-0.4,0.2c-0.2,0-0.2-0.1-0.2-0.3
			c0,0,0,0,0-0.1c0.3-0.8,0.5-1.6,0.8-2.4c0.3-0.8,0.6-1.6,0.9-2.4c0-0.1,0.1-0.1,0.1-0.2c0.1-0.1,0.2-0.1,0.2-0.1
			c0.1,0,0.1,0,0.2,0.1c0,0.1,0,0.1,0,0.2L63.2,14.3z"/>
		<path id="you-y" d="M71.2,14.7C71.2,14.7,71.1,14.7,71.2,14.7c-0.1,0.1-0.1,0.1-0.1,0.2c0,0,0,0.1,0,0.1c0,0,0,0,0,0
			c-0.1,0.2-0.3,0.5-0.4,0.9c-0.2,0.3-0.3,0.7-0.5,1c-0.1,0.3-0.2,0.6-0.3,0.9c-0.1,0.3-0.1,0.4,0,0.5c0.2,0,0.4,0,0.6-0.1
			c0.2-0.1,0.4-0.2,0.6-0.3c0.2-0.1,0.4-0.3,0.6-0.5c0.2-0.2,0.4-0.3,0.5-0.5l0.1-0.1l0.5-0.5c0.1-0.1,0.3-0.3,0.4-0.4
			c0.1-0.1,0.3-0.2,0.4-0.3c0.1-0.1,0.3-0.2,0.4-0.2c0.1,0,0.2,0,0.3,0.1c0.1,0.1,0.1,0.3,0,0.8c-0.1,0.4-0.2,0.9-0.3,1.4
			c-0.1,0.4-0.2,0.7-0.3,1.1c-0.1,0.4-0.2,0.8-0.3,1.1c0.8-0.2,1.6-0.3,2.4-0.3c0,0,0,0,0.1,0c0,0,0,0,0.1,0H76
			c0.2,0,0.3,0.1,0.2,0.3c0,0.1-0.1,0.1-0.1,0.2C76,20,75.9,20,75.8,20h-0.2c-0.4,0-0.8,0-1.2,0.1c-0.4,0.1-0.8,0.2-1.2,0.3
			l-0.4,1.4l-0.1,0.4c-0.1,0.4-0.3,1-0.6,1.7c-0.2,0.7-0.5,1.4-0.8,2.1c-0.3,0.7-0.7,1.5-1.1,2.2c-0.4,0.7-0.9,1.4-1.4,2
			c-0.5,0.6-1,1.1-1.6,1.4c-0.6,0.4-1.2,0.6-1.8,0.6c-0.2,0-0.4,0-0.7-0.1c-0.5-0.1-0.8-0.3-1-0.6c-0.2-0.3-0.3-0.7-0.3-1.1
			c0-0.3,0-0.6,0.1-0.9c0.1-0.3,0.2-0.6,0.3-1c0.1-0.3,0.2-0.6,0.4-0.9c0.1-0.3,0.3-0.6,0.4-0.8c0.4-0.8,1-1.5,1.6-2.2
			c0.6-0.7,1.3-1.3,2-1.9c0.7-0.6,1.4-1.1,2.2-1.5c0.8-0.4,1.5-0.8,2.3-1.1c0.1-0.2,0.1-0.4,0.2-0.7c0.1-0.2,0.1-0.5,0.2-0.8
			c0.1-0.3,0.1-0.5,0.2-0.7c0.1-0.2,0.1-0.5,0.2-0.7c0.1-0.2,0.1-0.4,0.1-0.6c0-0.2,0.1-0.4,0.1-0.5c-0.1,0.1-0.2,0.2-0.3,0.3
			c-0.1,0.1-0.2,0.2-0.3,0.4l-0.2,0.2c-0.2,0.2-0.5,0.5-0.8,0.8c-0.3,0.3-0.6,0.5-0.9,0.7c-0.3,0.2-0.6,0.4-0.9,0.4
			c-0.3,0.1-0.6,0.1-0.8,0c-0.2-0.1-0.3-0.2-0.3-0.5c0-0.2,0-0.5,0.1-0.7c0.1-0.3,0.2-0.6,0.3-0.9c0.1-0.3,0.3-0.6,0.4-0.9
			c0.1-0.3,0.3-0.6,0.4-0.8l0.2-0.4c0.1-0.2,0.2-0.3,0.4-0.2c0.1,0,0.2,0,0.2,0.1c0,0.1,0,0.1,0,0.2L71.2,14.7z M72.5,20.6
			c-0.7,0.2-1.3,0.5-2,1c-0.7,0.4-1.3,0.9-2,1.4c-0.6,0.5-1.2,1.1-1.8,1.7c-0.6,0.6-1,1.2-1.5,1.9c-0.1,0.2-0.3,0.5-0.5,0.8
			c-0.2,0.3-0.3,0.6-0.4,0.9c-0.1,0.3-0.2,0.6-0.3,1C64,29.6,64,29.9,64,30.1c0,0.3,0.1,0.6,0.2,0.9c0.1,0.2,0.4,0.4,0.7,0.5
			c0.2,0,0.4,0.1,0.5,0.1c0.6,0,1.1-0.2,1.6-0.6c0.5-0.4,1-0.9,1.5-1.5c0.5-0.6,0.9-1.3,1.3-2.1c0.4-0.8,0.7-1.5,1.1-2.3
			c0.3-0.8,0.6-1.5,0.8-2.2c0.2-0.7,0.4-1.2,0.6-1.7L72.5,20.6z"/>
		<path id="you-o" d="M76.4,14.5c0.1,0,0.1,0.1,0.1,0.2c0,0.1,0,0.1-0.1,0.2c0,0,0.1-0.1,0.2-0.1c0.2-0.1,0.4-0.2,0.6-0.3
			c0.2-0.1,0.4-0.1,0.6-0.1s0.4,0.1,0.5,0.2v0c0.1,0.1,0.2,0.3,0.2,0.6c0,0.2,0,0.4-0.1,0.7c-0.1,0.2-0.2,0.5-0.3,0.7
			c-0.1,0.2-0.2,0.5-0.4,0.7c-0.1,0.2-0.3,0.4-0.4,0.6c-0.3,0.3-0.6,0.6-0.9,0.8c-0.3,0.2-0.6,0.3-0.9,0.3c-0.2,0-0.4-0.1-0.6-0.2
			c-0.1-0.1-0.2-0.3-0.3-0.6c0-0.2,0-0.5,0-0.8c0.1-0.3,0.1-0.6,0.2-0.9c0.1-0.3,0.3-0.6,0.4-0.9c0.2-0.3,0.4-0.6,0.5-0.8
			c0.1-0.1,0.1-0.1,0.2-0.1C76.3,14.5,76.4,14.5,76.4,14.5z M75.4,17c0,0.1,0,0.2-0.1,0.3c0,0.1,0,0.2,0,0.3c0,0.2,0,0.3,0.1,0.5
			c0.1,0.2,0.2,0.3,0.4,0.3c0.1,0,0.3,0,0.5-0.1c0.2-0.1,0.3-0.2,0.5-0.4c0.2-0.2,0.3-0.4,0.5-0.6c0.2-0.2,0.3-0.5,0.4-0.8
			c0.1-0.3,0.2-0.5,0.2-0.8c0.1-0.2,0.1-0.5,0-0.6c0-0.1-0.1-0.1-0.2-0.1c-0.1,0-0.2,0-0.3,0c-0.1,0-0.2,0.1-0.3,0.1
			c-0.1,0.1-0.2,0.1-0.3,0.2c-0.3,0.2-0.6,0.5-0.8,0.9C75.8,16.4,75.6,16.7,75.4,17L75.4,17z"/>
		<path id="you-u" d="M80.7,15.2L80.7,15.2c-0.1,0.2-0.3,0.4-0.4,0.7c-0.2,0.3-0.3,0.6-0.4,0.9c-0.1,0.3-0.2,0.6-0.2,0.8
			c0,0.3,0,0.4,0.1,0.6c0.1,0.1,0.3,0.1,0.5,0c0.2-0.1,0.4-0.3,0.7-0.5c0.2-0.2,0.5-0.4,0.7-0.6c0.2-0.2,0.4-0.4,0.6-0.6l0.3-0.3
			c0.1-0.1,0.2-0.2,0.3-0.3s0.2-0.2,0.3-0.3c0.2-0.2,0.4-0.3,0.7-0.4c0.2-0.1,0.4-0.1,0.5,0.1c0,0,0,0.1,0,0.2c0,0.1,0,0.2,0,0.3
			c0,0,0,0,0,0c0,0,0,0,0,0c0,0.2,0,0.3-0.1,0.5c0,0.1-0.1,0.3-0.1,0.4c0,0.2-0.1,0.3-0.1,0.5c0,0.1,0,0.3,0,0.4
			c0,0.2,0.1,0.4,0.3,0.4c0.2,0,0.5-0.1,1-0.4c0.5-0.3,1.2-0.7,2.1-1.4l0.1-0.1l0.2-0.1c0.1,0,0.2-0.1,0.2-0.1c0.1,0,0.1,0,0.2,0.1
			c0,0.1,0.1,0.1,0,0.2c0,0.1-0.1,0.1-0.2,0.2l-0.6,0.4c-0.3,0.2-0.6,0.4-0.8,0.6c-0.3,0.2-0.6,0.4-0.9,0.6
			c-0.3,0.2-0.5,0.3-0.8,0.4c-0.2,0.1-0.5,0.2-0.7,0.2c-0.2,0-0.4-0.1-0.5-0.3c-0.1-0.2-0.2-0.5-0.1-1c0-0.1,0-0.2,0.1-0.4
			c0-0.1,0.1-0.3,0.1-0.4c0-0.1,0-0.2,0.1-0.3c0-0.1,0-0.2,0.1-0.3l0,0c-0.1,0.1-0.3,0.2-0.5,0.4c-0.2,0.2-0.4,0.4-0.6,0.6
			c-0.3,0.3-0.5,0.5-0.8,0.8c-0.3,0.3-0.6,0.5-0.8,0.7c-0.3,0.2-0.5,0.3-0.8,0.4c-0.2,0.1-0.4,0.1-0.6-0.1c-0.2-0.2-0.3-0.4-0.3-0.8
			c0-0.2,0-0.5,0.1-0.7c0.1-0.3,0.2-0.5,0.3-0.8c0.1-0.3,0.2-0.5,0.4-0.8c0.1-0.2,0.3-0.5,0.4-0.6c0.1-0.1,0.1-0.1,0.2-0.1
			c0.1,0,0.2,0,0.2,0C80.8,14.9,80.8,15,80.7,15.2L80.7,15.2z"/>
	</g>
</g>
<g id="mask">
	<path id="mask-s" class="st0" d="M6.4,15c0,0,0.3-0.9-0.2-0.9S5.4,14.3,5,14.8c-0.3,0.5-0.8,0.9-0.5,1.5c0.3,0.6,1,0.9,1.1,1.3
		c0.1,0.4-0.1,1.2-0.5,1.5c-0.4,0.3-1,0.3-1.1,0s0.1-0.9,0.5-1.2c0.5-0.4,1.7-0.8,2.3-1.1s0.9-0.4,0.9-0.4l0.2-0.1"/>
	<path id="mask-t" class="st0" d="M33.1,4.4c0,0-8.8,14.7-6.6,17.1c1.9,0.2,8.8-5.6,8.8-5.6"/>
	<path id="mask-tt" class="st0" d="M26.5,9.5c0,0,3.8-0.7,8-0.5"/>
	<path id="mask-ee" class="st0" d="M35.1,15.9c0.5,0.2,2.4,0,2.4-0.7c0-0.8-1.7-0.1-2.8,1.3c-1.2,1.4-0.5,2.9,1.8,1.8
		c2.3-1.1,3.4-1.7,3.7-1.9"/>
	<path id="mask-d" class="st1" d="M43.4,14.8c0,0-1-2.3-4.2,3.1c0,1.3,1.8,0,1.8,0C43.2,16.1,51.4,5.2,51,2.7
		c-0.9-1.7-4.6,0.8-6.9,10.2c-0.2,3-0.6,4.5,0.8,4.8c1.7,0.3,3.4-2,3.4-2"/>
	<path id="mask-f" class="st1" d="M52.3,15.4c0,0,7.9-8.4,8.6-12.2C61.6,0,50.2,20.5,50.6,27.8c1.9,1.9,7.6-6.3,1.2-10.3
		c-1.6,0.7-2,1.2-2,1.2s7.4-3.6,11.8-9.6"/>
	<path id="mask-o" class="st1" d="M59,14.2c0,0-0.8,0.9-1.1,1.6c-0.6,1.1-0.6,2.9,0.4,2.6c1.9-0.5,3-3.6,2-3.8
		c-1-0.2-2.7,1.8-2.7,1.8"/>
	<path id="mask-r" class="st1" d="M63.3,13.4l-2,5.4c0,0,4.1-6.8,5.1-5.4c0.6,0.8-0.3,0.9-0.3,0.9"/>
	<path id="mask-y" class="st1" d="M71.3,14c0,0-2.5,4.3-1.5,4.6c1,0.4,3.6-3,4.1-3.1s0.2,0.3,0.2,0.3s-2,8.7-3.5,10.8
		s-3.5,6.9-6.4,5c-3-2,4.7-9.1,4.5-9.1c-0.2-0.1,4.9-3.1,7.5-2.7"/>
	<path id="mask-oo" class="st1" d="M76.6,14.4c0,0-0.8,0.9-1.1,1.6c-0.6,1.1-0.6,2.9,0.4,2.6c1.9-0.5,3-3.8,2.1-4
		c-1-0.2-2.8,2-2.8,2"/>
	<path id="mask-u" class="st1" d="M80.8,14.8c0,0-2.3,2.9-1.2,3.7s2.4-2.6,4.4-3c0,0-0.9,3.2,0,2.9s3.9-2.3,3.9-2.3"/>
	<path id="mask-ce" class="st0" d="M10,15.5c0,0,0.6-0.6,0.5-0.8c-0.1-0.2-0.4-0.2-1,0.2s-2.1,1.6-2.2,2.3c-0.1,0.7,0.2,1.3,0.9,1.3
		c0.6,0,3.2-0.9,4.6-2c0.5-0.3,0.8-0.5,1-0.5c0.2,0,1.5-0.2,1.7-0.4c0.2-0.2,0.6-0.8,0-0.8c-0.6,0-2.6,1.2-2.8,2.7
		c-0.2,1.4,0.8,1,1.3,0.9s3.5-1.7,3.5-1.7l0.7-0.4l1.4-2.5c0,0-2.3,4.2-1.7,5c0.4,0.6,3.1-4.3,5.2-4.4c1.2,0.1,0.6,1.6,0.9,2.9
		c0.3,1.2,3.3-1.1,3.3-1.1"/>
</g>
</svg>
